HIERARCHY
ROOT hip
{
  OFFSET -5.33706 85.513 -3.90801
  CHANNELS 6 Xposition Yposition Zposition Zrotation Xrotation Yrotation
  JOINT abdomen
  {
    OFFSET 0 20.6881 -0.73152
    CHANNELS 3 Zrotation Xrotation Yrotation
    JOINT chest
    {
      OFFSET 0 11.7043 -0.48768
      CHANNELS 3 Zrotation Xrotation Yrotation
      JOINT neck
      {
        OFFSET 0 22.1894 -2.19456
        CHANNELS 3 Zrotation Xrotation Yrotation
        JOINT head
        {
          OFFSET -0.24384 7.07133 1.2192
          CHANNELS 3 Zrotation Xrotation Yrotation
          JOINT leftEye
          {
            OFFSET 4.14528 8.04674 8.04672
            CHANNELS 3 Zrotation Xrotation Yrotation
            End Site
            {
              OFFSET 1 0 0
            }
          }
          JOINT rightEye
          {
            OFFSET -3.6576 8.04674 8.04672
            CHANNELS 3 Zrotation Xrotation Yrotation
            End Site
            {
              OFFSET 1 0 0
            }
          }
        }
      }
      JOINT rCollar
      {
        OFFSET -2.68224 19.2634 -4.8768
        CHANNELS 3 Zrotation Xrotation Yrotation
        JOINT rShldr
        {
          OFFSET -8.77824 -1.95073 1.46304
          CHANNELS 3 Zrotation Xrotation Yrotation
          JOINT rForeArm
          {
            OFFSET -28.1742 -1.7115 0.48768
            CHANNELS 3 Zrotation Xrotation Yrotation
            JOINT rHand
            {
              OFFSET -22.5879 0.773209 7.07136
              CHANNELS 3 Zrotation Xrotation Yrotation
              JOINT rThumb1
              {
                OFFSET -1.2192 -0.487915 3.41376
                CHANNELS 3 Zrotation Xrotation Yrotation
                JOINT rThumb2
                {
                  OFFSET -3.37035 -0.52449 3.41376
                  CHANNELS 3 Zrotation Xrotation Yrotation
                  End Site
                  {
                    OFFSET -1.78271 -1.18214 1.43049
                  }
                }
              }
              JOINT rIndex1
              {
                OFFSET -7.75947 0.938293 5.60832
                CHANNELS 3 Zrotation Xrotation Yrotation
                JOINT rIndex2
                {
                  OFFSET -2.54057 -0.884171 1.56538
                  CHANNELS 3 Zrotation Xrotation Yrotation
                  End Site
                  {
                    OFFSET -1.62519 -0.234802 1.16502
                  }
                }
              }
              JOINT rMid1
              {
                OFFSET -8.24714 1.18213 3.41376
                CHANNELS 3 Zrotation Xrotation Yrotation
                JOINT rMid2
                {
                  OFFSET -3.10165 -0.590103 1.0647
                  CHANNELS 3 Zrotation Xrotation Yrotation
                  End Site
                  {
                    OFFSET -2.48547 -0.328903 0.83742
                  }
                }
              }
              JOINT rRing1
              {
                OFFSET -8.82822 0.546677 1.51678
                CHANNELS 3 Zrotation Xrotation Yrotation
                JOINT rRing2
                {
                  OFFSET -2.60934 -0.819778 -0.0198488
                  CHANNELS 3 Zrotation Xrotation Yrotation
                  End Site
                  {
                    OFFSET -2.33842 -0.294052 0.168128
                  }
                }
              }
              JOINT rPinky1
              {
                OFFSET -8.27202 -0.0477905 -0.4584
                CHANNELS 3 Zrotation Xrotation Yrotation
                JOINT rPinky2
                {
                  OFFSET -1.82734 -0.647385 -0.700984
                  CHANNELS 3 Zrotation Xrotation Yrotation
                  End Site
                  {
                    OFFSET -1.69225 -0.51767 -0.607171
                  }
                }
              }
            }
          }
        }
      }
      JOINT lCollar
      {
        OFFSET 2.68224 19.2634 -4.8768
        CHANNELS 3 Zrotation Xrotation Yrotation
        JOINT lShldr
        {
          OFFSET 8.77824 -1.95073 1.46304
          CHANNELS 3 Zrotation Xrotation Yrotation
          JOINT lForeArm
          {
            OFFSET 28.1742 -1.7115 0.48768
            CHANNELS 3 Zrotation Xrotation Yrotation
            JOINT lHand
            {
              OFFSET 22.5879 0.773209 7.07136
              CHANNELS 3 Zrotation Xrotation Yrotation
              JOINT lThumb1
              {
                OFFSET 1.2192 -0.487915 3.41376
                CHANNELS 3 Zrotation Xrotation Yrotation
                JOINT lThumb2
                {
                  OFFSET 3.37035 -0.52449 3.41376
                  CHANNELS 3 Zrotation Xrotation Yrotation
                  End Site
                  {
                    OFFSET 1.78271 -1.18214 1.43049
                  }
                }
              }
              JOINT lIndex1
              {
                OFFSET 7.75947 0.938293 5.60832
                CHANNELS 3 Zrotation Xrotation Yrotation
                JOINT lIndex2
                {
                  OFFSET 2.54057 -0.884171 1.56538
                  CHANNELS 3 Zrotation Xrotation Yrotation
                  End Site
                  {
                    OFFSET 1.62519 -0.234802 1.16502
                  }
                }
              }
              JOINT lMid1
              {
                OFFSET 8.24714 1.18213 3.41376
                CHANNELS 3 Zrotation Xrotation Yrotation
                JOINT lMid2
                {
                  OFFSET 3.10165 -0.590103 1.0647
                  CHANNELS 3 Zrotation Xrotation Yrotation
                  End Site
                  {
                    OFFSET 2.48547 -0.328903 0.83742
                  }
                }
              }
              JOINT lRing1
              {
                OFFSET 8.82822 0.546677 1.51678
                CHANNELS 3 Zrotation Xrotation Yrotation
                JOINT lRing2
                {
                  OFFSET 2.60934 -0.819778 -0.0198488
                  CHANNELS 3 Zrotation Xrotation Yrotation
                  End Site
                  {
                    OFFSET 2.33842 -0.294052 0.168128
                  }
                }
              }
              JOINT lPinky1
              {
                OFFSET 8.27202 -0.0477905 -0.4584
                CHANNELS 3 Zrotation Xrotation Yrotation
                JOINT lPinky2
                {
                  OFFSET 1.82734 -0.647385 -0.700984
                  CHANNELS 3 Zrotation Xrotation Yrotation
                  End Site
                  {
                    OFFSET 1.69225 -0.51767 -0.607171
                  }
                }
              }
            }
          }
        }
      }
    }
  }
  JOINT rButtock
  {
    OFFSET -8.77824 4.35084 1.2192
    CHANNELS 3 Zrotation Xrotation Yrotation
    JOINT rThigh
    {
      OFFSET 0 -1.70687 -2.19456
      CHANNELS 3 Zrotation Xrotation Yrotation
      JOINT rShin
      {
        OFFSET 0 -36.8199 0.73152
        CHANNELS 3 Zrotation Xrotation Yrotation
        JOINT rFoot
        {
          OFFSET 0.73152 -45.1104 -5.12064
          CHANNELS 3 Zrotation Xrotation Yrotation
          End Site
          {
            OFFSET -1.1221 -3.69964 12.103
          }
        }
      }
    }
  }
  JOINT lButtock
  {
    OFFSET 8.77824 4.35084 1.2192
    CHANNELS 3 Zrotation Xrotation Yrotation
    JOINT lThigh
    {
      OFFSET 0 -1.70687 -2.19456
      CHANNELS 3 Zrotation Xrotation Yrotation
      JOINT lShin
      {
        OFFSET 0 -36.8199 0.73152
        CHANNELS 3 Zrotation Xrotation Yrotation
        JOINT lFoot
        {
          OFFSET -0.73152 -45.1104 -5.12064
          CHANNELS 3 Zrotation Xrotation Yrotation
          End Site
          {
            OFFSET 1.1221 -3.69964 12.103
          }
        }
      }
    }
  }
}
MOTION
Frames:	4
Frame Time:	0.00833333
-0.925538 114.489 -0.484662 0.967023 2.59069 0.174869 1.14732 10.1334 -0.23595 0.637748 -5.53889 0.0197127 -6.42081 0.2475 -0.0666006 9.85793 -30.0631 4.34654 -0 0 0 -0 0 0 7.25824e-016 -8.98476e-014 4.22417e-015 33.653 -12.593 -2.62869 -26.7948 -25.6755 60.3626 -0.214144 13.0682 1.86947 1.98777e-009 -4.43464e-009 -6.98195e-010 3.4291e-009 -7.67798e-009 -1.22968e-009 1.98777e-009 -4.43463e-009 -6.98211e-010 7.73091 5.47488 0.417314 1.98777e-009 -4.43464e-009 -6.98199e-010 2.90554 0.965183 0.102902 1.98778e-009 -4.43464e-009 -6.98193e-010 10.2786 0.731801 0.0259123 1.98777e-009 -4.43464e-009 -6.98186e-010 2.22167 -0.733487 -0.20892 5.66357e-016 -8.98542e-014 3.72721e-015 -32.7715 -20.0712 2.09934 27.7575 -29.3222 -66.1682 0.303485 -15.4865 2.23165 -5.09242e-010 -2.49201e-009 1.76023e-009 -9.00778e-010 -4.31422e-009 3.03992e-009 -5.09243e-010 -2.49201e-009 1.76024e-009 -7.73091 5.47488 -0.417314 -5.09242e-010 -2.49202e-009 1.76025e-009 -2.90554 0.965183 -0.102902 -5.0925e-010 -2.49201e-009 1.76024e-009 -10.2786 0.731801 -0.0259123 -5.09237e-010 -2.49201e-009 1.76024e-009 -2.22167 -0.733487 0.20892 -2.03217e-016 0 -3.88251e-019 0.0408381 -12.5514 10.1527 -0.164093 26.8419 0.0483018 6.44342 23.4436 -19.6688 2.03217e-016 0 3.88251e-019 2.97243 -11.3766 4.69024 0.171203 21.8992 0.136383 -6.82828 30.3453 16.1491 
-1.01438 115.416 -0.556196 1.12865 2.30991 0.240374 0.843645 10.6612 -0.217844 0.626692 -5.66989 0.0193002 -6.29587 0.404266 -0.0856959 10.0054 -29.894 4.27857 -0 0 0 -0 0 0 1.19604e-014 -6.96531e-014 5.57218e-015 34.4651 -13.7809 -3.59233 -26.4695 -24.7055 58.7572 -0.225438 13.3958 1.91813 1.65839e-009 -3.83512e-009 -6.87216e-010 2.85985e-009 -6.63864e-009 -1.20743e-009 1.65839e-009 -3.83511e-009 -6.87229e-010 7.73091 5.47488 0.417314 1.65838e-009 -3.83511e-009 -6.87218e-010 2.90554 0.965183 0.102902 1.65839e-009 -3.83512e-009 -6.87213e-010 10.2786 0.731801 0.0259123 1.65838e-009 -3.83512e-009 -6.87205e-010 2.22167 -0.733487 -0.20892 1.18282e-014 -6.9658e-014 5.11832e-015 -34.4796 -20.9273 2.72094 27.6476 -28.8003 -65.3094 0.304929 -15.5044 2.23459 -3.33175e-010 -2.03155e-009 1.45856e-009 -5.92794e-010 -3.519e-009 2.5205e-009 -3.33176e-010 -2.03156e-009 1.45857e-009 -7.73091 5.47488 -0.417314 -3.33175e-010 -2.03157e-009 1.45857e-009 -2.90554 0.965183 -0.102902 -3.33181e-010 -2.03155e-009 1.45857e-009 -10.2786 0.731801 -0.0259123 -3.3317e-010 -2.03155e-009 1.45856e-009 -2.22167 -0.733487 0.20892 -2.03217e-016 0 -3.88251e-019 0.0111881 -12.9348 9.92356 -0.179495 28.3141 0.0942721 5.79057 24.2215 -17.3343 2.03217e-016 0 3.88251e-019 2.9014 -11.5816 5.08818 0.177477 23.0097 0.0995071 -6.21032 31.653 14.1675 
-1.09845 116.292 -0.605243 1.27184 2.14805 0.256214 0.547625 10.9449 -0.148876 0.584988 -5.73441 0.0292839 -6.14152 0.644237 -0.104394 10.1341 -29.6489 4.18183 -0 0 0 -0 0 0 3.46242e-014 -3.65254e-014 6.11884e-015 35.2914 -14.9277 -4.50364 -26.0831 -23.6467 57.0529 -0.235164 13.6771 1.95995 9.57435e-010 -2.32693e-009 -5.10443e-010 1.6497e-009 -4.02645e-009 -8.94236e-010 9.57437e-010 -2.32692e-009 -5.10451e-010 7.73091 5.47488 0.417314 9.57434e-010 -2.32693e-009 -5.10442e-010 2.90554 0.965183 0.102902 9.57436e-010 -2.32693e-009 -5.10439e-010 10.2786 0.731801 0.0259123 9.57426e-010 -2.32693e-009 -5.10429e-010 2.22167 -0.733487 -0.20892 3.45272e-014 -3.65283e-014 5.76165e-015 -36.1679 -21.7462 3.28869 27.498 -28.1614 -64.3131 0.307727 -15.5434 2.24088 -3.09386e-011 -1.13592e-009 8.45173e-010 -6.2866e-011 -1.97038e-009 1.46305e-009 -3.09404e-011 -1.13593e-009 8.45177e-010 -7.73091 5.47488 -0.417314 -3.09386e-011 -1.13594e-009 8.45178e-010 -2.90554 0.965183 -0.102902 -3.09425e-011 -1.13592e-009 8.45174e-010 -10.2786 0.731801 -0.0259123 -3.09345e-011 -1.13592e-009 8.45171e-010 -2.22167 -0.733487 0.20892 -2.03217e-016 0 -3.88251e-019 0.0173195 -13.3761 9.91971 -0.19299 29.593 0.145221 4.94474 24.8767 -14.6678 2.03217e-016 0 3.88251e-019 2.82049 -11.8126 5.24735 0.180288 23.8896 0.0575264 -5.45206 32.5486 12.208 
-1.13888 117.141 -0.624634 1.40565 2.05063 0.256229 0.274453 11.0791 -0.0721206 0.528847 -5.74141 0.0400991 -5.99599 0.878689 -0.124402 10.2438 -29.3303 4.07288 -0 0 0 -0 0 0 5.55173e-014 -4.8139e-015 5.81756e-015 36.0974 -16.0618 -5.32056 -25.6426 -22.5443 55.3012 -0.243279 13.9087 1.99446 2.4385e-010 -7.08359e-010 -2.83243e-010 4.18182e-010 -1.22366e-009 -4.93622e-010 2.43854e-010 -7.08353e-010 -2.83246e-010 7.73091 5.47488 0.417314 2.43848e-010 -7.08359e-010 -2.83241e-010 2.90554 0.965183 0.102902 2.43849e-010 -7.0836e-010 -2.83238e-010 10.2786 0.731801 0.0259123 2.43841e-010 -7.0836e-010 -2.83227e-010 2.22167 -0.733487 -0.20892 5.54575e-014 -4.81504e-015 5.5617e-015 -37.7989 -22.4642 3.80838 27.3158 -27.4524 -63.2124 0.315819 -15.7376 2.27038 2.51513e-010 -2.35391e-010 2.33002e-010 4.32692e-010 -4.12801e-010 4.07179e-010 2.5151e-010 -2.35396e-010 2.33005e-010 -7.73091 5.47488 -0.417314 2.51513e-010 -2.35404e-010 2.33003e-010 -2.90554 0.965183 -0.102902 2.51511e-010 -2.3539e-010 2.32999e-010 -10.2786 0.731801 -0.0259123 2.51517e-010 -2.35387e-010 2.32996e-010 -2.22167 -0.733487 0.20892 -2.03217e-016 0 -3.88251e-019 0.0287288 -13.7682 10.0376 -0.204596 30.6212 0.194009 4.04944 25.2662 -12.0965 2.03217e-016 0 3.88251e-019 2.70902 -11.9894 5.21585 0.181173 24.5169 0.0178199 -4.6869 33.0826 10.4453 
